<svg xmlns="http://www.w3.org/2000/svg" width="18" height="18" viewBox="0 0 18 18">
    <defs>
        <filter id="qgq4kt8k0a" width="160.2%" height="165.7%" x="-30.1%" y="-32.9%" filterUnits="objectBoundingBox">
            <feOffset dx="10" dy="20" in="SourceAlpha" result="shadowOffsetOuter1"/>
            <feGaussianBlur in="shadowOffsetOuter1" result="shadowBlurOuter1" stdDeviation="20"/>
            <feColorMatrix in="shadowBlurOuter1" result="shadowMatrixOuter1" values="0 0 0 0 0.355612378 0 0 0 0 0.414279225 0 0 0 0 0.575435915 0 0 0 0.12 0"/>
            <feMerge>
                <feMergeNode in="shadowMatrixOuter1"/>
                <feMergeNode in="SourceGraphic"/>
            </feMerge>
        </filter>
        <filter id="3jx6bncvnb">
            <feColorMatrix in="SourceGraphic" values="0 0 0 0 0.384859 0 0 0 0 0.418869 0 0 0 0 0.622934 0 0 0 1.000000 0"/>
        </filter>
        <linearGradient id="qya943jjwc" x1="9.5%" x2="90.5%" y1="0%" y2="100%">
            <stop offset="0%" stop-color="#454F84"/>
            <stop offset="100%" stop-color="#454F84" stop-opacity=".25"/>
        </linearGradient>
    </defs>
    <g fill="none" fill-rule="evenodd">
        <g>
            <g filter="url(#qgq4kt8k0a)" transform="translate(-243 -515) translate(16 379)">
                <g filter="url(#3jx6bncvnb)" transform="translate(76 134)">
                    <g fill="url(#qya943jjwc)" transform="translate(151 2)">
                        <path d="M14.25 8.25H3.75v-3c0-.413.337-.75.75-.75h.75v.75c0 .412.338.75.75.75s.75-.338.75-.75V4.5h4.5v.75c0 .412.338.75.75.75s.75-.338.75-.75V4.5h.75c.413 0 .75.337.75.75v3zM12 12.75H9c-.412 0-.75-.338-.75-.75s.338-.75.75-.75h3c.412 0 .75.338.75.75s-.338.75-.75.75zm-6 0c-.412 0-.75-.338-.75-.75s.338-.75.75-.75.75.338.75.75-.338.75-.75.75zM13.5 3h-.75v-.75c0-.413-.338-.75-.75-.75s-.75.337-.75.75V3h-4.5v-.75c0-.413-.338-.75-.75-.75s-.75.337-.75.75V3H4.5C3.26 3 2.25 4.01 2.25 5.25v9c0 1.24 1.01 2.25 2.25 2.25h9c1.24 0 2.25-1.01 2.25-2.25v-9C15.75 4.01 14.74 3 13.5 3z"/>
                    </g>
                </g>
            </g>
        </g>
    </g>
</svg>
