<svg xmlns="http://www.w3.org/2000/svg" width="100" height="100" viewBox="0 0 100 100">
    <defs>
        <filter id="r4g5rhgema" width="160.2%" height="202.7%" x="-30.1%" y="-51.3%" filterUnits="objectBoundingBox">
            <feOffset dx="10" dy="20" in="SourceAlpha" result="shadowOffsetOuter1"/>
            <feGaussianBlur in="shadowOffsetOuter1" result="shadowBlurOuter1" stdDeviation="20"/>
            <feColorMatrix in="shadowBlurOuter1" result="shadowMatrixOuter1" values="0 0 0 0 0.719146286 0 0 0 0 0.555053222 0 0 0 0 0.377483284 0 0 0 0.2 0"/>
            <feMerge>
                <feMergeNode in="shadowMatrixOuter1"/>
                <feMergeNode in="SourceGraphic"/>
            </feMerge>
        </filter>
    </defs>
    <g fill="none" fill-rule="evenodd">
        <g fill="#FFF" fill-rule="nonzero">
            <g filter="url(#r4g5rhgema)" transform="translate(-158 -193) translate(16 131)">
                <path d="M50 100c13.84 0 25.632-4.874 35.38-14.62C95.125 75.631 100 63.84 100 50c0-13.84-4.874-25.632-14.62-35.38C75.631 4.875 63.84 0 50 0 36.16 0 24.33 4.91 14.509 14.732 4.836 24.405 0 36.161 0 50c0 13.84 4.874 25.632 14.62 35.38C24.369 95.125 36.16 100 50 100zm22.044-35.978c.614 0 .837.064 1.061.184.225.12.4.296.52.52.12.225.185.448.185 1.062v4.088c0 .614-.064.837-.184 1.061-.12.224-.296.4-.52.52-.225.12-.448.184-1.062.184H27.956c-.614 0-.837-.063-1.061-.183-.225-.12-.4-.297-.52-.521-.12-.224-.185-.447-.185-1.06v-4.09c0-.613.064-.836.184-1.06.12-.225.296-.4.52-.52.225-.12.448-.185 1.062-.185h44.088zm9.445-21.08c1.903 1.136 2.417 3.438 1.148 5.143-1.268 1.704-3.839 2.165-5.742 1.028-3.31-1.977-7.623-1.977-10.933 0-1.903 1.137-4.474.676-5.742-1.028-1.269-1.705-.755-4.007 1.148-5.144 6.092-3.638 14.029-3.638 20.121 0zm-42.857 0c1.903 1.136 2.417 3.438 1.148 5.143-1.268 1.704-3.839 2.165-5.742 1.028-3.31-1.977-7.623-1.977-10.933 0-1.903 1.137-4.474.676-5.742-1.028-1.269-1.705-.755-4.007 1.148-5.144 6.092-3.638 14.029-3.638 20.12 0z" transform="translate(142 62)"/>
            </g>
        </g>
    </g>
</svg>
