<svg xmlns="http://www.w3.org/2000/svg" viewBox="0 0 24 24">
    <g fill="none" fill-rule="evenodd">
        <g fill="#FFF" fill-rule="nonzero">
            <path d="M12 24c3.321 0 6.152-1.17 8.491-3.509C22.831 18.151 24 15.321 24 12c0-3.321-1.17-6.152-3.509-8.491C18.151 1.169 15.321 0 12 0 8.679 0 5.84 1.179 3.482 3.536 1.161 5.857 0 8.679 0 12c0 3.321 1.17 6.152 3.509 8.491C5.849 22.831 8.679 24 12 24zM8.078 11.429c-.351 0-.625-.096-.82-.286-.274-.318-.606-.476-.996-.476s-.723.158-.996.476c-.196.19-.47.286-.82.286-.235 0-.43-.048-.587-.143-.508-.318-.566-.667-.176-1.048.704-.73 1.563-1.095 2.579-1.095 1.133 0 2.012.365 2.637 1.095.39.413.312.762-.235 1.048-.195.095-.39.143-.586.143zm11.429 0c-.352 0-.625-.096-.82-.286-.274-.318-.606-.476-.997-.476-.39 0-.722.158-.996.476-.195.19-.469.286-.82.286-.235 0-.43-.048-.586-.143-.508-.318-.567-.667-.176-1.048.703-.73 1.563-1.095 2.578-1.095 1.133 0 2.012.365 2.637 1.095.39.413.313.762-.234 1.048-.195.095-.39.143-.586.143zm-7.483 8c-1.654 0-3.149-.397-4.486-1.19-1.336-.795-2.286-1.866-2.849-3.215-.246-.556-.106-.972.422-1.25.07-.04.194-.06.37-.06.351 0 .597.179.738.536.422.992 1.161 1.786 2.216 2.381 1.056.595 2.252.893 3.589.893 1.301 0 2.48-.298 3.535-.893 1.055-.595 1.812-1.409 2.269-2.44.176-.318.422-.477.739-.477.105 0 .228.04.37.12.492.277.615.694.368 1.25-.633 1.349-1.6 2.41-2.902 3.184-1.301.774-2.761 1.16-4.38 1.16z" transform="translate(-47 -203) translate(47 203)"/>
        </g>
    </g>
</svg>
