<svg xmlns="http://www.w3.org/2000/svg" width="29" height="29" viewBox="0 0 29 29">
    <g fill="none" fill-rule="evenodd">
        <g fill="#69768D" fill-rule="nonzero">
            <path d="M56.5 276.619c3.875 0 7.177-1.365 9.906-4.094 2.73-2.73 4.094-6.031 4.094-9.906 0-3.875-1.365-7.177-4.094-9.906-2.729-2.73-6.031-4.094-9.906-4.094-3.875 0-7.188 1.375-9.938 4.125-2.708 2.708-4.062 6-4.062 9.875s1.365 7.177 4.094 9.906c2.729 2.73 6.031 4.094 9.906 4.094zm0-2c-3.333 0-6.167-1.167-8.5-3.5-2.333-2.334-3.5-5.167-3.5-8.5 0-3.334 1.167-6.167 3.5-8.5 2.333-2.334 5.167-3.5 8.5-3.5s6.167 1.166 8.5 3.5c2.333 2.333 3.5 5.166 3.5 8.5 0 3.333-1.167 6.166-3.5 8.5-2.333 2.333-5.167 3.5-8.5 3.5zm8.938-12c.208 0 .416-.063.624-.188.584-.375.667-.833.25-1.375-.666-.958-1.604-1.437-2.812-1.437-1.083 0-2 .479-2.75 1.437-.417.5-.354.959.188 1.375.208.125.416.188.624.188.376 0 .667-.125.876-.375.291-.417.645-.625 1.062-.625.417 0 .77.208 1.063.625.208.25.5.375.874.375zm-14 0c.208 0 .416-.063.624-.188.584-.375.667-.833.25-1.375-.666-.958-1.604-1.437-2.812-1.437-1.083 0-2 .479-2.75 1.437-.417.5-.354.959.188 1.375.208.125.416.188.624.188.376 0 .667-.125.876-.375.291-.417.645-.625 1.062-.625.417 0 .77.208 1.063.625.208.25.5.375.874.375zm5.062 8c1.917 0 3.646-.406 5.188-1.219 1.541-.812 2.687-1.927 3.437-3.344.292-.583.146-1.02-.438-1.312-.166-.084-.312-.125-.437-.125-.375 0-.667.166-.875.5-.542 1.083-1.438 1.937-2.688 2.562-1.25.625-2.645.938-4.187.938-1.583 0-3-.313-4.25-.938s-2.125-1.458-2.625-2.5c-.167-.375-.458-.562-.875-.562-.208 0-.354.02-.438.062-.624.292-.791.73-.5 1.313.667 1.416 1.792 2.541 3.376 3.375 1.583.833 3.354 1.25 5.312 1.25z" transform="translate(-42 -248)"/>
        </g>
    </g>
</svg>
