<?xml version="1.0" encoding="utf-8"?>
<!-- Generator: Adobe Illustrator 25.1.0, SVG Export Plug-In . SVG Version: 6.00 Build 0)  -->
<svg version="1.1" id="Layer_1" xmlns="http://www.w3.org/2000/svg" xmlns:xlink="http://www.w3.org/1999/xlink" x="0px" y="0px"
	 viewBox="0 0 244.53 236.58" style="enable-background:new 0 0 244.53 236.58;" xml:space="preserve">
<style type="text/css">
	.st0{fill:#0A56A1;}
	.st1{fill:url(#SVGID_1_);}
	.st2{fill:url(#SVGID_2_);}
	.st3{opacity:0.55;}
	.st4{fill:url(#SVGID_3_);}
	.st5{fill:url(#SVGID_4_);}
</style>
<g>
	<g>
		<g>
			<path class="st0" d="M198.58,192.01l-0.17,0.11c10-2.68,20.61-7.5,32.22-15.23c-53.48,4.36-77.59-45.02-138.32-50.56
				c-50.86-4.63-75.29,32.14-78.42,38.33C130.3,97.89,128.99,216.18,198.58,192.01z"/>
		</g>
	</g>
	<g>
		<g>
			<g>
				<g>
					<g>
						<linearGradient id="SVGID_1_" gradientUnits="userSpaceOnUse" x1="35.696" y1="174.3633" x2="141.7783" y2="174.3633">
							<stop  offset="0.2799" style="stop-color:#0A56A1;stop-opacity:0.6"/>
							<stop  offset="0.9914" style="stop-color:#0A56A1"/>
						</linearGradient>
						<path class="st1" d="M56.4,171.01c24.45,8.27,33.01,38.05,85.38,11.91c-15.89-1.79-24.38-7.82-43.46-19.97
							c-22.22-14.15-47.34-5.84-62.62,2.1C42.89,166.34,49.88,168.17,56.4,171.01z"/>
					</g>
				</g>
			</g>
		</g>
	</g>
	<g>
		<g>
			<linearGradient id="SVGID_2_" gradientUnits="userSpaceOnUse" x1="43.2283" y1="98.7999" x2="192.4067" y2="98.7999">
				<stop  offset="0" style="stop-color:#FEEC8E"/>
				<stop  offset="0.5" style="stop-color:#FECB01"/>
				<stop  offset="1" style="stop-color:#FEA300"/>
			</linearGradient>
			<path class="st2" d="M92.93,118.25c1.71,0.16,3.37,0.36,5.02,0.58c0.4,0.05,0.8,0.11,1.2,0.17c1.62,0.24,3.23,0.49,4.8,0.79
				c0.08,0.01,0.15,0.03,0.23,0.05c1.52,0.29,3,0.61,4.47,0.95c0.37,0.09,0.74,0.17,1.1,0.26c1.51,0.36,3,0.75,4.46,1.16
				c0.13,0.04,0.26,0.08,0.39,0.11c1.36,0.39,2.7,0.81,4.03,1.24c0.34,0.11,0.68,0.22,1.02,0.33c1.41,0.47,2.8,0.96,4.16,1.47
				c0.16,0.06,0.32,0.13,0.48,0.19c1.25,0.47,2.48,0.96,3.69,1.47c0.31,0.13,0.62,0.26,0.93,0.39c1.32,0.56,2.63,1.13,3.92,1.72
				c0.18,0.08,0.36,0.17,0.54,0.25c1.16,0.54,2.31,1.09,3.45,1.65c0.28,0.14,0.56,0.27,0.84,0.41c1.26,0.63,2.51,1.27,3.74,1.92
				c0.18,0.1,0.36,0.19,0.54,0.29c1.12,0.59,2.22,1.19,3.32,1.8c0.24,0.13,0.48,0.26,0.72,0.4c1.22,0.68,2.43,1.37,3.63,2.07
				c0.17,0.1,0.34,0.2,0.51,0.3c1.11,0.64,2.21,1.29,3.3,1.95c0.18,0.11,0.36,0.21,0.53,0.32c1.23,0.74,2.46,1.48,3.67,2.22
				c0.06,0.03,0.11,0.07,0.17,0.1c2.85,1.74,5.66,3.48,8.46,5.2c0.64,0.4,1.29,0.79,1.93,1.18c0.46,0.28,0.92,0.56,1.38,0.84
				c1.02,0.62,2.04,1.23,3.06,1.84c0.35,0.21,0.7,0.41,1.05,0.62c0.83,0.49,1.67,0.98,2.51,1.46c0.32,0.18,0.63,0.37,0.95,0.55
				c1.06,0.6,2.12,1.2,3.18,1.78c0.04,0.02,0.09,0.05,0.13,0.07c7.56-11.67,11.97-25.56,11.97-40.5c0-41.19-33.39-74.59-74.59-74.59
				c-41.19,0-74.59,33.39-74.59,74.59c0,4.09,0.34,8.11,0.98,12.02C56.48,121.12,72.61,116.4,92.93,118.25z"/>
		</g>
		<g class="st3">
			<linearGradient id="SVGID_3_" gradientUnits="userSpaceOnUse" x1="43.2283" y1="81.129" x2="192.4067" y2="81.129">
				<stop  offset="0" style="stop-color:#FEEC8E"/>
				<stop  offset="0.5" style="stop-color:#FECB01"/>
				<stop  offset="1" style="stop-color:#FEA300"/>
			</linearGradient>
			<path class="st4" d="M51.93,108.94c5.4-5.25,11.76-9.77,18.29-13.51c13.1-7.5,27.59-11.98,42.52-13.89
				c16.92-2.16,34.5-1.43,50.92,3.45c9.04,2.69,17.57,8.7,26.5,12.62c-8.13-32.38-37.43-56.37-72.34-56.37
				c-41.19,0-74.59,33.39-74.59,74.59c0,1.74,0.07,3.45,0.19,5.16C45.72,116.65,48.26,112.5,51.93,108.94z"/>
		</g>
		<g class="st3">
			
				<linearGradient id="SVGID_4_" gradientUnits="userSpaceOnUse" x1="-227.3696" y1="615.5277" x2="-78.1911" y2="615.5277" gradientTransform="matrix(0.5818 0.8134 -0.8134 0.5818 746.1594 -145.7389)">
				<stop  offset="0" style="stop-color:#FEEC8E"/>
				<stop  offset="0.5" style="stop-color:#FECB01"/>
				<stop  offset="1" style="stop-color:#FEA300"/>
			</linearGradient>
			<path class="st5" d="M178.48,72.46c-19.75-27.61-54.87-37.7-85.36-26.99c5.78,3.46,11.36,7.33,17.03,11.32
				c12.14,8.55,14.87,10.18,29.34,23.91c1.4,1.35-1.36-1.33,0,0c18.52,18.1,24.51,38.3,30.08,54.49c1.79,5.21,2.56,10.94,3.3,16.71
				c2.81,0.83,5.35,2.4,7.75,4.19C196.58,131.16,196.76,98.01,178.48,72.46z"/>
		</g>
	</g>
</g>
</svg>
