<svg xmlns="http://www.w3.org/2000/svg" viewBox="0 0 24 24">
    <g fill="none" fill-rule="evenodd">
        <g fill="#FFF" fill-rule="nonzero">
            <path d="M12 24c3.321 0 6.152-1.17 8.491-3.509C22.831 18.151 24 15.321 24 12c0-3.321-1.17-6.152-3.509-8.491C18.151 1.169 15.321 0 12 0 8.679 0 5.84 1.179 3.482 3.536 1.161 5.857 0 8.679 0 12c0 3.321 1.17 6.152 3.509 8.491C5.849 22.831 8.679 24 12 24zm4.8-8.635c.505 0 .914.41.914.915 0 .505-.41.914-.914.914H7.2c-.505 0-.914-.41-.914-.914 0-.505.41-.915.914-.915h9.6zm2.757-5.06c.457.274.58.826.276 1.235-.304.41-.921.52-1.378.247-.795-.474-1.83-.474-2.624 0-.457.273-1.074.162-1.378-.247-.305-.409-.181-.961.275-1.234 1.462-.873 3.367-.873 4.83 0zm-10.285 0c.456.274.58.826.275 1.235-.304.41-.921.52-1.378.247-.794-.474-1.83-.474-2.624 0-.457.273-1.074.162-1.378-.247-.304-.409-.181-.961.276-1.234 1.462-.873 3.367-.873 4.829 0z" transform="translate(-93 -203) translate(93 203)"/>
        </g>
    </g>
</svg>
