<svg xmlns="http://www.w3.org/2000/svg" width="28" height="28" viewBox="0 0 28 28">
    <g fill="none" fill-rule="evenodd">
        <g fill="#69768D" fill-rule="nonzero">
            <path d="M103 277c3.875 0 7.177-1.365 9.906-4.094 2.73-2.729 4.094-6.031 4.094-9.906 0-3.875-1.365-7.177-4.094-9.906-2.729-2.73-6.031-4.094-9.906-4.094-3.875 0-7.188 1.375-9.938 4.125-2.708 2.708-4.062 6-4.062 9.875s1.365 7.177 4.094 9.906C95.823 275.636 99.125 277 103 277zm0-2c-3.333 0-6.167-1.167-8.5-3.5S91 266.333 91 263s1.167-6.167 3.5-8.5 5.167-3.5 8.5-3.5 6.167 1.167 8.5 3.5 3.5 5.167 3.5 8.5-1.167 6.167-3.5 8.5-5.167 3.5-8.5 3.5zm5.6-8.074c.59 0 1.067.478 1.067 1.067s-.478 1.067-1.067 1.067H97.4c-.59 0-1.067-.478-1.067-1.067 0-.59.478-1.067 1.067-1.067h11.2zm3.217-5.902c.533.318.677.962.321 1.44-.355.477-1.075.606-1.607.288-.927-.554-2.135-.554-3.062 0-.532.318-1.252.189-1.607-.288-.356-.478-.212-1.122.321-1.44 1.706-1.02 3.928-1.02 5.634 0zm-12 0c.533.318.677.962.321 1.44-.355.477-1.075.606-1.607.288-.927-.554-2.135-.554-3.062 0-.532.318-1.252.189-1.607-.288-.356-.478-.212-1.122.321-1.44 1.706-1.02 3.928-1.02 5.634 0z" transform="translate(-89 -249)"/>
        </g>
    </g>
</svg>
