<svg xmlns="http://www.w3.org/2000/svg" width="22" height="22" viewBox="0 0 22 22">
    <defs>
        <filter id="mbm7b0fmha" width="160.2%" height="165.7%" x="-30.1%" y="-32.9%" filterUnits="objectBoundingBox">
            <feOffset dx="10" dy="20" in="SourceAlpha" result="shadowOffsetOuter1"/>
            <feGaussianBlur in="shadowOffsetOuter1" result="shadowBlurOuter1" stdDeviation="20"/>
            <feColorMatrix in="shadowBlurOuter1" result="shadowMatrixOuter1" values="0 0 0 0 0.355612378 0 0 0 0 0.414279225 0 0 0 0 0.575435915 0 0 0 0.12 0"/>
            <feMerge>
                <feMergeNode in="shadowMatrixOuter1"/>
                <feMergeNode in="SourceGraphic"/>
            </feMerge>
        </filter>
        <filter id="8y41aiewab">
            <feColorMatrix in="SourceGraphic" values="0 0 0 0 0.384859 0 0 0 0 0.418869 0 0 0 0 0.622934 0 0 0 1.000000 0"/>
        </filter>
        <linearGradient id="dfz92sn2tc" x1="19.753%" x2="80.247%" y1="0%" y2="100%">
            <stop offset="0%" stop-color="#454F84"/>
            <stop offset="100%" stop-color="#454F84" stop-opacity=".25"/>
        </linearGradient>
    </defs>
    <g fill="none" fill-rule="evenodd">
        <g>
            <g filter="url(#mbm7b0fmha)" transform="translate(-92 -513) translate(16 379)">
                <g filter="url(#8y41aiewab)" transform="translate(76 134)">
                    <g fill="url(#dfz92sn2tc)">
                        <path d="M11 11.917c3.537 0 6.417 2.878 6.417 6.416 0 .506-.41.917-.917.917h-11c-.507 0-.917-.41-.917-.917 0-3.538 2.88-6.416 6.417-6.416zm0-9.167c2.022 0 3.667 1.644 3.667 3.667 0 2.022-1.645 3.666-3.667 3.666S7.333 8.44 7.333 6.417C7.333 4.395 8.978 2.75 11 2.75z"/>
                    </g>
                </g>
            </g>
        </g>
    </g>
</svg>
