<svg xmlns="http://www.w3.org/2000/svg" width="100" height="100" viewBox="0 0 100 100">
    <defs>
        <filter id="7h4vyq7eja" width="160.2%" height="202.7%" x="-30.1%" y="-51.3%" filterUnits="objectBoundingBox">
            <feOffset dx="10" dy="20" in="SourceAlpha" result="shadowOffsetOuter1"/>
            <feGaussianBlur in="shadowOffsetOuter1" result="shadowBlurOuter1" stdDeviation="20"/>
            <feColorMatrix in="shadowBlurOuter1" result="shadowMatrixOuter1" values="0 0 0 0 0.719146286 0 0 0 0 0.377483284 0 0 0 0 0.423457714 0 0 0 0.2 0"/>
            <feMerge>
                <feMergeNode in="shadowMatrixOuter1"/>
                <feMergeNode in="SourceGraphic"/>
            </feMerge>
        </filter>
    </defs>
    <g fill="none" fill-rule="evenodd">
        <g fill="#FFF" fill-rule="nonzero">
            <g filter="url(#7h4vyq7eja)" transform="translate(-158 -193) translate(16 131)">
                <path d="M50 100c13.84 0 25.632-4.874 35.38-14.62C95.125 75.631 100 63.84 100 50c0-13.84-4.874-25.632-14.62-35.38C75.631 4.875 63.84 0 50 0 36.16 0 24.33 4.91 14.509 14.732 4.836 24.405 0 36.161 0 50c0 13.84 4.874 25.632 14.62 35.38C24.369 95.125 36.16 100 50 100zM22.768 60.268c-1.042.297-1.786.372-2.232.223-2.381-.595-3.2-2.009-2.456-4.241 1.34-4.167 3.87-6.92 7.59-8.259 3.72-1.34 7.44-.893 11.16 1.34 2.084 1.339 2.381 2.976.893 4.91-.446.595-1.116 1.042-2.009 1.34-1.339.595-2.455.52-3.348-.224-1.488-.893-2.902-1.116-4.241-.67-1.19.447-2.158 1.563-2.902 3.349-.446 1.041-1.265 1.785-2.455 2.232zm56.696.223c-.595.149-1.339.074-2.232-.223-1.19-.447-2.009-1.19-2.455-2.232-.744-1.786-1.712-2.902-2.902-3.349-1.34-.446-2.753-.223-4.241.67-.893.744-2.009.819-3.348.223-.893-.297-1.563-.744-2.01-1.339-1.487-1.934-1.115-3.571 1.117-4.91 3.571-2.233 7.217-2.68 10.937-1.34 3.72 1.34 6.25 4.092 7.59 8.259.744 2.232-.075 3.646-2.456 4.241zm-11.607 18.08c-1.19 0-2.158-.52-2.902-1.562l-1.339-1.563c-.893-.892-2.604-1.785-5.134-2.678-2.53-.893-5.357-1.34-8.482-1.34-7.143 0-12.128 1.86-14.955 5.58-.744 1.043-1.712 1.563-2.902 1.563-.595 0-1.265-.223-2.01-.67-1.934-1.338-2.231-2.975-.892-4.91.298-.595 1.005-1.45 2.12-2.567 1.117-1.116 3.423-2.418 6.92-3.906S45.685 64.286 50 64.286c4.315 0 8.222.744 11.719 2.232 3.497 1.488 5.803 2.79 6.92 3.906 1.115 1.116 1.822 1.972 2.12 2.567 1.34 1.935 1.042 3.572-.893 4.91-.744.447-1.414.67-2.009.67z" transform="translate(142 62)"/>
            </g>
        </g>
    </g>
</svg>
