<svg xmlns="http://www.w3.org/2000/svg" width="29" height="28" viewBox="0 0 29 28">
    <g fill="none" fill-rule="evenodd">
        <g fill="#69768D" fill-rule="nonzero">
            <path d="M141.5 276.556c3.754 0 6.953-1.322 9.597-3.965 2.644-2.644 3.965-5.843 3.965-9.597 0-3.754-1.321-6.953-3.965-9.597-2.644-2.644-5.843-3.966-9.597-3.966-3.754 0-6.963 1.332-9.627 3.996-2.624 2.624-3.935 5.813-3.935 9.567 0 3.754 1.321 6.953 3.965 9.597 2.644 2.643 5.843 3.965 9.597 3.965zm0-1.937c-3.23 0-5.974-1.13-8.234-3.39-2.26-2.261-3.391-5.006-3.391-8.235 0-3.23 1.13-5.974 3.39-8.235 2.261-2.26 5.006-3.39 8.235-3.39 3.23 0 5.974 1.13 8.234 3.39 2.26 2.26 3.391 5.006 3.391 8.235 0 3.229-1.13 5.974-3.39 8.234-2.261 2.26-5.006 3.39-8.235 3.39zm7.387-8.84c.242.08.444.1.605.06.646-.16.868-.544.666-1.15-.363-1.13-1.05-1.877-2.058-2.24-1.01-.363-1.998-.242-2.967.363-.606.363-.707.807-.303 1.332.121.162.303.283.545.363.363.162.666.142.908-.06.404-.242.787-.303 1.15-.182.324.121.586.424.788.909.12.282.343.484.666.605zm-15.38.06c.122.04.324.02.606-.06.323-.121.545-.323.666-.605.202-.485.464-.788.787-.909.364-.12.747-.06 1.15.182.243.202.546.222.909.06.242-.08.424-.201.545-.363.404-.525.323-.969-.242-1.332-1.01-.605-2.018-.726-3.028-.363-1.009.363-1.695 1.11-2.058 2.24-.202.606.02.99.666 1.15zm12.837 4.905c.161 0 .343-.06.545-.182.524-.363.605-.807.242-1.332-.08-.161-.273-.393-.575-.696-.303-.303-.929-.656-1.877-1.06-.949-.403-2.008-.605-3.179-.605-1.17 0-2.23.202-3.179.605-.948.404-1.574.757-1.877 1.06-.302.303-.494.535-.575.696-.363.525-.282.969.242 1.332.202.121.384.182.545.182.323 0 .586-.141.787-.424l.364-.424c.242-.242.706-.484 1.392-.726.686-.243 1.453-.364 2.301-.364 1.938 0 3.29.505 4.057 1.514.201.283.464.424.787.424z" transform="translate(-127 -249)"/>
        </g>
    </g>
</svg>
