<svg xmlns="http://www.w3.org/2000/svg" viewBox="0 0 24 24">
    <g fill="none" fill-rule="evenodd">
        <g fill="#FFF" fill-rule="nonzero">
            <path d="M12 24c3.321 0 6.152-1.17 8.491-3.509C22.831 18.151 24 15.321 24 12c0-3.321-1.17-6.152-3.509-8.491C18.151 1.169 15.321 0 12 0 8.679 0 5.84 1.179 3.482 3.536 1.161 5.857 0 8.679 0 12c0 3.321 1.17 6.152 3.509 8.491C5.849 22.831 8.679 24 12 24zm-6.536-9.536c-.25.072-.428.09-.535.054-.572-.143-.768-.482-.59-1.018.322-1 .929-1.66 1.822-1.982.893-.322 1.785-.214 2.678.321.5.322.572.715.215 1.179-.108.143-.268.25-.483.321-.321.143-.589.125-.803-.053-.357-.215-.697-.268-1.018-.161-.286.107-.518.375-.696.804-.108.25-.304.428-.59.535zm13.607.054c-.142.036-.321.018-.535-.054-.286-.107-.482-.285-.59-.535-.178-.429-.41-.697-.696-.804-.321-.107-.66-.054-1.018.16-.214.18-.482.197-.803.054-.215-.071-.375-.178-.483-.321-.357-.464-.267-.857.268-1.179.857-.535 1.732-.643 2.625-.321.893.321 1.5.982 1.822 1.982.178.536-.018.875-.59 1.018zm-2.785 4.34c-.286 0-.518-.126-.697-.376l-.321-.375c-.214-.214-.625-.428-1.232-.643-.607-.214-1.286-.321-2.036-.321-1.714 0-2.91.446-3.59 1.34-.178.25-.41.374-.696.374-.143 0-.303-.053-.482-.16-.464-.322-.536-.715-.214-1.18.071-.142.24-.347.509-.615.268-.268.821-.58 1.66-.938.84-.357 1.777-.535 2.813-.535 1.036 0 1.973.178 2.813.535.839.357 1.392.67 1.66.938.268.268.438.473.51.616.32.464.25.857-.215 1.178-.179.108-.34.161-.482.161z" transform="translate(-139 -203) translate(139 203)"/>
        </g>
    </g>
</svg>
