<svg xmlns="http://www.w3.org/2000/svg" width="24" height="24" viewBox="0 0 24 24">
    <defs>
        <linearGradient id="af2pmeo7pa" x1="19.753%" x2="80.247%" y1="0%" y2="100%">
            <stop offset="0%" stop-color="#FFF"/>
            <stop offset="100%" stop-color="#FFF" stop-opacity=".3"/>
        </linearGradient>
    </defs>
    <g fill="none" fill-rule="evenodd">
        <g fill="url(#af2pmeo7pa)" transform="translate(-142 -823)">
            <g>
                <g>
                    <g>
                        <path d="M12 13c3.859 0 7 3.14 7 7 0 .552-.447 1-1 1H6c-.553 0-1-.448-1-1 0-3.86 3.141-7 7-7zm0-10c2.206 0 4 1.794 4 4s-1.794 4-4 4-4-1.794-4-4 1.794-4 4-4z" transform="translate(0 801) translate(131 11) translate(11 11)"/>
                    </g>
                </g>
            </g>
        </g>
    </g>
</svg>
