<svg xmlns="http://www.w3.org/2000/svg" width="28" height="28" viewBox="0 0 28 28">
    <defs>
        <filter id="bc54dcowoa">
            <feColorMatrix in="SourceGraphic" values="0 0 0 0 0.384859 0 0 0 0 0.418869 0 0 0 0 0.622934 0 0 0 1.000000 0"/>
        </filter>
    </defs>
    <g fill="none" fill-rule="evenodd" opacity=".7">
        <g>
            <g filter="url(#bc54dcowoa)" transform="translate(-45 -828) translate(0 801)">
                <g>
                    <g fill="#0D1C2E" fill-rule="nonzero">
                        <path d="M9.333 17.5c.642 0 1.167.525 1.167 1.167 0 .641-.525 1.166-1.167 1.166-.641 0-1.166-.525-1.166-1.166 0-.642.525-1.167 1.166-1.167zm9.334 0c.641 0 1.166.525 1.166 1.167 0 .641-.525 1.166-1.166 1.166H14c-.642 0-1.167-.525-1.167-1.166 0-.642.525-1.167 1.167-1.167zM21 23.333H7c-.643 0-1.167-.523-1.167-1.166v-7h16.334v7c0 .642-.524 1.166-1.167 1.166M7 7h1.167v1.167c0 .641.525 1.166 1.166 1.166.642 0 1.167-.525 1.167-1.166V7h7v1.167c0 .641.525 1.166 1.167 1.166.641 0 1.166-.525 1.166-1.166V7H21c.643 0 1.167.524 1.167 1.167v4.666H5.833V8.167C5.833 7.524 6.357 7 7 7m14-2.333h-1.167V3.5c0-.642-.525-1.167-1.166-1.167-.642 0-1.167.525-1.167 1.167v1.167h-7V3.5c0-.642-.525-1.167-1.167-1.167-.641 0-1.166.525-1.166 1.167v1.167H7c-1.93 0-3.5 1.57-3.5 3.5v14c0 1.93 1.57 3.5 3.5 3.5h14c1.93 0 3.5-1.57 3.5-3.5v-14c0-1.93-1.57-3.5-3.5-3.5" transform="translate(33 27) translate(12)"/>
                    </g>
                </g>
            </g>
        </g>
    </g>
</svg>
