<svg xmlns="http://www.w3.org/2000/svg" width="22" height="22" viewBox="0 0 22 22">
    <defs>
        <linearGradient id="i0x664b0sa" x1="9.5%" x2="90.5%" y1="0%" y2="100%">
            <stop offset="0%" stop-color="#FFF"/>
            <stop offset="100%" stop-color="#FFF" stop-opacity=".3"/>
        </linearGradient>
    </defs>
    <g fill="none" fill-rule="evenodd">
        <g fill="url(#i0x664b0sa)" transform="translate(-48 -826)">
            <g>
                <g>
                    <g>
                        <path d="M17.417 10.083H4.583V6.417c0-.505.412-.917.917-.917h.917v.917c0 .504.412.916.916.916.505 0 .917-.412.917-.916V5.5h5.5v.917c0 .504.412.916.917.916.504 0 .916-.412.916-.916V5.5h.917c.505 0 .917.412.917.917v3.666zm-2.75 5.5H11c-.504 0-.917-.412-.917-.916 0-.505.413-.917.917-.917h3.667c.504 0 .916.412.916.917 0 .504-.412.916-.916.916zm-7.334 0c-.504 0-.916-.412-.916-.916 0-.505.412-.917.916-.917.505 0 .917.412.917.917 0 .504-.412.916-.917.916zM16.5 3.667h-.917V2.75c0-.504-.412-.917-.916-.917-.505 0-.917.413-.917.917v.917h-5.5V2.75c0-.504-.412-.917-.917-.917-.504 0-.916.413-.916.917v.917H5.5c-1.516 0-2.75 1.234-2.75 2.75v11c0 1.516 1.234 2.75 2.75 2.75h11c1.516 0 2.75-1.234 2.75-2.75v-11c0-1.516-1.234-2.75-2.75-2.75z" transform="translate(33 814) translate(3) translate(12 12)"/>
                    </g>
                </g>
            </g>
        </g>
    </g>
</svg>
