<svg xmlns="http://www.w3.org/2000/svg" width="28" height="28" viewBox="0 0 28 28">
    <defs>
        <filter id="j7r5jo21sa">
            <feColorMatrix in="SourceGraphic" values="0 0 0 0 0.384859 0 0 0 0 0.418869 0 0 0 0 0.622934 0 0 0 1.000000 0"/>
        </filter>
    </defs>
    <g fill="none" fill-rule="evenodd" opacity=".7">
        <g filter="url(#j7r5jo21sa)" transform="translate(-239 -826)">
            <g>
                <g fill="#0D1C2E" fill-rule="nonzero">
                    <path d="M16.717 23.334c-.078 0-.158-.004-.239-.012-1.027-.101-1.832-.826-2.053-1.847l-3.13-14.457-3.224 7.446c-.185.427-.607.703-1.07.703H3.5c-.646 0-1.168-.522-1.168-1.166 0-.646.522-1.167 1.167-1.167h2.735L9.158 6.08c.415-.952 1.327-1.506 2.364-1.402 1.027.101 1.832.826 2.053 1.847l3.13 14.457 3.224-7.446c.186-.427.606-.702 1.071-.702h3.5c.645 0 1.167.521 1.167 1.167 0 .644-.522 1.166-1.167 1.166h-2.735l-2.923 6.753c-.382.878-1.2 1.414-2.125 1.414" transform="translate(230 826) translate(9)"/>
                </g>
            </g>
        </g>
    </g>
</svg>
