<svg xmlns="http://www.w3.org/2000/svg" width="24" height="24" viewBox="0 0 24 24">
    <defs>
        <linearGradient id="nihjrw87sa" x1="0%" x2="100%" y1="0%" y2="100%">
            <stop offset="0%" stop-color="#FFF"/>
            <stop offset="100%" stop-color="#FFF" stop-opacity=".3"/>
        </linearGradient>
    </defs>
    <g fill="none" fill-rule="evenodd">
        <g>
            <g>
                <path d="M0 0H24V24H0z" transform="translate(-224 -106) translate(224 106)"/>
                <path fill="url(#nihjrw87sa)" d="M11.5 2C6.253 2 2 6.253 2 11.5S6.253 21 11.5 21s9.5-4.253 9.5-9.5c-.006-5.244-4.256-9.494-9.5-9.5zm0 16.625c-3.935 0-7.125-3.19-7.125-7.125s3.19-7.125 7.125-7.125 7.125 3.19 7.125 7.125-3.19 7.125-7.125 7.125zm3.563-8.313h-2.376V7.938c0-.656-.531-1.188-1.187-1.188s-1.188.532-1.188 1.188V11.5c0 .656.532 1.188 1.188 1.188h3.563c.655 0 1.187-.532 1.187-1.188 0-.656-.532-1.188-1.188-1.188z" transform="translate(-224 -106) translate(224 106)"/>
            </g>
        </g>
    </g>
</svg>
